<svg xmlns="http://www.w3.org/2000/svg" width="500" height="500" viewBox="0 0 500 500"><defs><linearGradient id="a" x1="232.327" x2="336.808" y1="170.591" y2="294.436" gradientUnits="userSpaceOnUse"><stop offset="0" stop-color="#febc20"/><stop offset="1" stop-color="#f25e40"/></linearGradient></defs><path fill="url(#a)" d="m224.463 184.694 1.05.379c.905-.202.876-.249 1.537-.852.609-1.63-.069-2.318-.905-3.719-5.291-8.874-4.349-21.338 3.123-28.709.61-.831 6.017-4.865 5.944-5.584-.997-8.864-7.29-17.507-15.294-21.496-2.654-1.585-6.616-2.72-4.788-6.65.518-1.112 1.623-2.102 2.788-2.059 1.807.065 4.967 1.629 6.509 2.525 9.614 5.588 15.529 15.012 18.245 25.501 4.115-.951 10.668-1.311 14.647.051 1.968-12.075 11.581-24.435 23.56-27.864 3.317-.95 5.261 3.312 3.516 5.516-1.074 1.355-4.603 2.623-6.168 3.605-7.163 4.495-12.403 12.136-13.659 20.487-.141.941 1.674 2.113 2.351 2.611 8.82 7.462 12.724 16.887 8.49 28.034-.917 2.414-3.608 6.056-2.074 8.534.33.179.657.461.878.313 5.268-3.554 12.154-9.081 17.389-12.484 19.557-12.71 53.526-31.332 77.128-21.7 4.342 1.771 8.642 6.922 10.02 11.366 3.627 11.698.415 25.016-4.813 35.689-5.372 10.964-12.505 19.292-21.998 26.815-2.6 2.06-6.228 4.243-8.389 6.049 6.304 13.454 8.928 31.331-8.008 38.853-16.993 7.548-38.249-3.28-51.766-13.487-.636-.472-2.632-2.004-3.283-2.016-.219.915 3.05 6.882 3.689 8.51a69 69 0 0 1 2.743 8.724c5.079 20.496 1.241 41.381-11.687 58.179-1.186 1.541-3.373 4.424-4.792 5.629-5.259 4.465-6.881 6.865-9.923 13.002a409 409 0 0 0-5.392 11.177c-1.491 3.207-3.363 7.479-5.268 10.408-3.699-6.366-6.395-13.282-9.733-19.821-1.103-2.16-2.887-6.498-4.313-8.22-3.511-4.238-7.691-7.506-11.136-11.99a68.37 68.37 0 0 1-11.697-59.251c1.451-5.443 4.248-12.127 7.043-16.979-8.282 5.67-16.575 12.007-26.111 15.333-11.34 3.956-25.749 5.851-35.448-2.824-6.217-5.56-7.7-11.844-7.164-19.957.361-2.809.734-5.244 1.732-7.914.473-1.39.904-2.494 1.468-3.848.524-1.093 1.035-2.363 1.518-3.488-18.377-11.458-30.566-27.231-35.835-48.257-1.225-6.014-1.392-16.172 1.115-21.893 8.354-19.827 40.462-11.783 55.501-5.19a201 201 0 0 1 34.433 19.355c2.811 1.94 6.491 4.322 9.067 6.482 1.355.877 3.077 1.939 4.16 3.125m-32.583 19.945c9.382-1.55 17.238-.318 26.057 2.88.762-6.018 1.986-10.021 3.835-15.693-1.161-.884-2.292-1.853-3.416-2.788-19.218-14.232-52.402-35.747-77.738-33.112-3.63.378-8.569 1.933-10.744 5.031-3.487 4.966-3.469 12.483-2.582 18.183 2.718 17.461 14.151 32.756 28.335 42.851a40 40 0 0 0 4.498 2.726c8.211-11.196 18.056-17.632 31.755-20.078m-32.919 40.127c-.293 4.094-1.032 6.389.612 10.818 1.153 3.283 3.644 6.119 6.936 7.489 17.116 7.122 36.994-5.267 49.794-16.064 2.711-2.287 8.486-6.646 9.88-9.758-.04-1.55-3.325-5.765-4.117-7.894-2.945 1.75-6.008 3.63-9.096 5.104-13.193 6.301-29.47 7.462-43.335 2.667-1.65-.571-3.303-1.135-4.952-1.71-.691-.329-1.416-.8-2.129-.723-1.685 1.675-2.914 7.631-3.593 10.071m11.298-14.858c15.344 5.081 31.372 4.188 45.093-4.908.874-.58 3.123-1.773 3.567-2.63.686-1.328-.378-5.398-.65-6.819-5.294-3.532-15.695-4.51-21.963-4.163-6.174.977-12.097 1.947-17.408 5.547-2.434 1.65-12.062 8.364-11.666 11.402.685.958 1.876 1.192 3.027 1.571m107.639-37.99c1.856 5.006 3.597 10.242 3.975 15.616 11.75-4.309 22.364-4.732 34.317-.7 10.168 3.331 17.374 10.032 23.861 18.253 4.308-3.082 9.531-6.542 13.219-10.381 9.481-9.868 16.897-21.439 19.316-35.08 3.042-17.165-4.393-25.866-22.047-24.027-20.633 2.102-42.258 14.794-59.199 26.167-2.812 1.887-11.43 8.042-13.442 10.152m-45.092-3.702-.142.187-.411.585c-.078.171-1.978 3.167-2.208 3.546-2.124 3.49-2.862 6.214-3.916 10.063-2.469 9.017-.724 19.04 4.128 26.955 3.308 5.395 8.422 10.138 14.802 11.472 5.379 1.124 11.381.434 16.025-2.701 6.831-4.611 11.245-12.24 12.95-20.179 1.937-9.013-.018-19.335-5.018-26.992-3.338-5.113-9.177-9.849-15.302-10.857-7.237-1.192-12.195.962-17.971 4.858-.509.882-2.131 2.297-2.937 3.063m1.082 77.291c12.769 4.058 26.921 3.362 38.879-2.862a29 29 0 0 0 2.847-1.67c-3.012-5.252-5.846-10.007-9.759-14.666-.435-.518-1.114-1.574-1.438-1.869-8.376 5.846-20.916 5.723-29.319-.018-2.96 5.135-8.587 11.148-10.602 16.745 2.447 1.381 6.711 3.773 9.392 4.34m6.658-91.116a25.82 25.82 0 0 1 20.068.537c1.782.792 4.674 2.966 6.125 2.7 1.383-1.564 2.687-5.596 2.965-7.768.583-4.543-1.071-8.827-3.791-12.383-4.584-4.859-8.177-6.652-15.035-7.029-13.582-.748-25.165 11.082-19.292 24.542.824 1.889.964 3.335 3.219 2.181.771-.634 2.258-1.275 3.194-1.602 1.067-.696 1.317-.751 2.547-1.178m37.594 93.3c-1.513 1.054-3.42 1.867-5.108 2.641-15.739 7.22-36.888 6.372-51.754-2.639-1.087 4.279-2.79 8.68-2.89 12.978l3.395 2.066a58.24 58.24 0 0 0 44.681 4.806c4.635-1.343 11.168-4.02 15.098-6.896-.383-3.005-1.633-10.707-3.422-12.956m3.573-52.183c-.491 2.325-.975 4.686-.979 7.074 10.233 7.687 24.282 11.864 37.021 10.143 5.158-.628 11.133-1.922 15.751-4.404a41.3 41.3 0 0 0-26.664-16.547 42.3 42.3 0 0 0-10.193-.431c-4.972.605-10.596 1.502-14.936 4.165m-3.893 13.829c-1.513 3.01-3.09 4.995-4.475 7.588 1.917 2.873 4.782 5.465 7.309 7.821 12.117 11.301 38.792 28.024 55.049 17.062a14 14 0 0 0 2.214-1.828c3.457-5.098 4.228-8.988 3.025-15.092a46.7 46.7 0 0 0-3.507-10.594c-19.41 8.699-38.952 7.538-56.803-3.289-.574-.349-2.311-1.451-2.812-1.668m-8.852 97.186c1.319-1.635 7.539-10.87 7.336-12.466-.567-.104-.314-.14-.721.009a73.83 73.83 0 0 1-41.216 2.987c-2.423-.533-10.108-3.115-11.116-3.183 5.211 11.769 17.81 29.967 33.338 23.312 4.327-1.855 9.846-6.688 12.379-10.659m-14.82 18.977c-2.305.012-5.72-.063-7.929.092-.305 1.246 2.652 7.258 3.682 7.766.724-.837.882-1.087 1.454-2.047.788-1.734 1.839-4.239 2.793-5.811m28.045-56.683c-4.203 1.742-10.087 4.462-14.373 5.681-12.6 3.58-28.605 3.342-40.756-1.588-1.901-.771-8.1-3.832-9.435-4.146.097 2.787.381 13.889 2.585 15.197 9.751 5.786 22.811 8.594 34.072 7.792 5.477-.391 24.171-4.102 26.279-9.231 1.517-6.377.909-8.272 1.628-13.705"/><defs><linearGradient id="b" x1="139.813" x2="193.408" y1="144.521" y2="219.196" gradientUnits="userSpaceOnUse"><stop offset="0" stop-color="#fee20d"/><stop offset="1" stop-color="#feb624"/></linearGradient></defs><path fill="url(#b)" d="M121.302 160.922c8.354-19.827 40.462-11.783 55.501-5.19a201 201 0 0 1 34.433 19.355c2.811 1.94 6.491 4.322 9.067 6.482.143 3.336 1.297 1.901 2.619 4.022-.011.892-.208 1.699.271 2.212 1.057-.191.905-.335 1.722.018l-.12.316c-.666.255-.708.164-1.432.015l-.517.194c-1.733-.806-2.571-1.76-4.151-1.252-.531.825-.341.763-.339 1.944-19.218-14.232-52.402-35.747-77.738-33.112-3.63.378-8.569 1.933-10.744 5.031-3.487 4.966-3.469 12.483-2.582 18.183 2.718 17.461 14.151 32.756 28.335 42.851a40 40 0 0 0 4.498 2.726c8.211-11.196 18.056-17.632 31.755-20.078l-.24.726c.554.801.412.552 1.597.907l-.005.003.127.721-.301.201-.201-.487c-1.103.53-2.121 1.215-2.517 2.45 1.608.034 2.568-1.605 3.762-.631l-.076.389c-.911.577-2.032.671-3.12.793l-.474.587.144.195.566-.405c.759.154 1.332.426 2.202.169 1.108-.328 3.802-.616 4.645.09-.691.647-.883.366-1.643.744l-.04.297c-6.174.977-12.097 1.947-17.408 5.547-2.434 1.65-12.062 8.364-11.666 11.402.685.958 1.876 1.192 3.027 1.571l-1.021.139-.116.22c.982 1.104 2.111 1.26 2.483 2.141l-.263.237-.855-.085c-1.844 2.922-2.681.309-4.958 1.27-.302.515-.292.474-.324 1.069l-.522.519c-.691-.329-1.416-.8-2.129-.723-1.685 1.675-2.914 7.631-3.593 10.071-.72-.436-.872-.447-1.329-1.159-.095-1.08.032-.888.611-2.036-.025-.761.099-.438-.347-1.016-.978-.176-1.306.158-2.232.39-.04-.838.127-.642-.251-1.153-.662.302-.321.275-1.015.218-.225-1.756.552-3.042.106-5.45.524-1.093 1.035-2.363 1.518-3.488-18.377-11.458-30.566-27.231-35.835-48.257-1.225-6.014-1.392-16.172 1.115-21.893"/><path fill="#f3d90a" d="M120.187 182.815c-1.225-6.014-1.392-16.172 1.115-21.893.211 3.676-.824 5.048-1.221 8.639-.317 2.872.798 11.099.106 13.254"/><defs><linearGradient id="c" x1="220.717" x2="261.502" y1="113.199" y2="160.697" gradientUnits="userSpaceOnUse"><stop offset="0" stop-color="#ffdd1a"/><stop offset="1" stop-color="#feb31e"/></linearGradient></defs><path fill="url(#c)" d="m224.463 184.694 1.05.379c.905-.202.876-.249 1.537-.852.609-1.63-.069-2.318-.905-3.719-5.291-8.874-4.349-21.338 3.123-28.709.61-.831 6.017-4.865 5.944-5.584-.997-8.864-7.29-17.507-15.294-21.496-2.654-1.585-6.616-2.72-4.788-6.65.518-1.112 1.623-2.102 2.788-2.059 1.807.065 4.967 1.629 6.509 2.525 9.614 5.588 15.529 15.012 18.245 25.501 4.115-.951 10.668-1.311 14.647.051 1.968-12.075 11.581-24.435 23.56-27.864 3.317-.95 5.261 3.312 3.516 5.516-1.074 1.355-4.603 2.623-6.168 3.605-7.163 4.495-12.403 12.136-13.659 20.487-.141.941 1.674 2.113 2.351 2.611-.434 1.5-.525 1.227.434 2.55.028.931-1.208 2.343-1.859 3.304l-.587-.209c-.212 1.559 1.089 1.871 1.006 3.396-4.584-4.859-8.177-6.652-15.035-7.029-13.582-.748-25.165 11.082-19.292 24.542.824 1.889.964 3.335 3.219 2.181-.294.956-1.237 1.693-1.984 2.407l.66 1.083-.136.36c-1.682.235-1.952-1.419-3.466-.039.152.862.99 1.418 1.731 2.045-.071 2.023-1.963 6.202-4.109 6.553-.722-.542-.477-.189-.682-1.144.507-1.61.425-.944.046-2.741l-.295-.165-.936.944c-.787-1.683-1.384-.768-1.171-1.78"/><path fill="#feb720" d="M151.304 246.322c.361-2.809.734-5.244 1.732-7.914.132 1.848.332 3.14-.129 4.937l-.031-.071c-.417 1.227-.587 2.276-1.572 3.048"/><path fill="#feb720" d="M237.999 175.569c1.067-.696 1.317-.751 2.547-1.178-.595 1.311-.907 1.758-2.547 1.178"/><path fill="#020004" fill-opacity=".039" d="M322.441 230.618c.75-.198.954-.084 1.757.004-.785.153-.992.256-1.757-.004"/><path fill="#feb720" d="M232.806 188.216c-.205-.277-.26-.421-.417-.726.458-1.307 1.668-1.502 2.654-2.257l.334-.26.366.18c-.509.882-2.131 2.297-2.937 3.063"/><path fill="#feb720" d="M195.905 205.535c1.356-.072 1.694-.142 2.951.322l-.081.276-.892.008c-.576.04-1.962.141-2.334-.22z"/><path fill="#feb720" d="M224.503 189.899a.576.576 0 1 1 .14 1.143.576.576 0 0 1-.14-1.143"/><path fill="#feb720" d="M232.253 188.988c-.193-.035-.654-.22-.858-.294l-.018-.148c.495-.307.554-.174 1.287-.143z"/></svg>